<svg width="1008" height="263" viewBox="0 0 1008 263" fill="none" xmlns="http://www.w3.org/2000/svg">
<g clip-path="url(#clip0)">
<path fill-rule="evenodd" clip-rule="evenodd" d="M154.611 176.01L151.991 168.933L116.523 75.6C114.391 81.0666 109.457 94.2666 104.124 108.4L83.724 163.467C82.7907 166.133 83.3235 167.467 83.9901 168.4C85.4573 170.133 88.6719 170.135 93.738 170.135H94.6719L94.6568 176H56.5235L56.5229 170.135H59.4563C64.6563 170.135 68.924 167.867 72.124 161.467L75.9901 152.667L111.323 62.2666L105.057 45.6H137.991L183.457 165.2L187.611 176.01H154.611ZM0 -2.5034e-05V120.533C0 208.133 67.8667 238.533 117.467 260.8H117.601L121.601 262.667C122.533 262.133 123.467 261.733 124.533 261.333C125.066 261.067 125.733 260.8 126.267 260.533C176 238.4 244.133 207.867 244.133 120.533V-2.5034e-05H0Z" fill="black"/>
<path d="M417.92 155.024C419.024 157.784 419.576 160.176 419.576 162.384C419.576 168.088 415.16 170.112 403.568 170.48V176H454.904V170.48C449.752 169.56 445.888 168.456 444.048 163.672L395.84 45.544H372.656L378.176 58.424L336.776 163.672C334.936 168.64 331.072 169.56 325.92 170.48V176H362.904V170.48C350.944 169.928 346.528 167.904 346.528 162.2C346.528 160.176 347.264 157.6 348.368 155.024L357.2 132.024H408.536L417.92 155.024ZM382.408 67.44L405.776 125.216H359.96L382.408 67.44ZM492.061 31.928H488.933L459.861 40.944V43.704L471.453 49.96V162.016C471.453 168.824 468.509 170.112 459.309 170.664V176H504.205V170.664C495.005 170.112 492.061 168.824 492.061 162.016V31.928ZM597.735 98.168L598.471 77.928H595.527L565.167 83.816V88.784L567.927 89.152C576.023 90.44 577.311 92.648 577.311 99.088V156.128C570.687 160.912 564.247 164.96 555.599 164.96C544.743 164.96 540.143 157.784 540.143 145.272V98.904L541.063 77.928H538.119L507.391 83.816V88.784L510.335 89.152C518.247 90.44 519.719 92.648 519.719 99.088V148.584C519.719 169.008 529.471 177.84 545.479 177.84C559.095 177.84 568.847 169.192 577.311 160.36L576.575 177.84H580.255L610.615 171.216V166.432L605.831 166.064C598.103 165.328 597.735 163.672 597.735 157.416V98.168ZM742.216 162.016C742.216 168.824 739.64 170.112 730.44 170.664V176H774.968V170.664C765.768 170.112 762.824 168.824 762.824 162.016V107.552C762.824 87.864 755.28 77.744 738.536 77.744C723.816 77.744 713.328 86.392 705.048 95.96C702.472 83.448 695.112 77.744 681.864 77.744C666.96 77.744 657.576 85.84 649.296 95.408L650.032 77.744H646.904L617.096 87.312V89.888L628.688 96.328V162.016C628.688 168.824 625.744 170.112 616.544 170.664V176H661.256V170.664C652.056 170.112 649.296 168.824 649.296 162.016V100.008C655.736 94.856 662.544 90.44 671.008 90.44C681.312 90.44 685.544 96.144 685.544 108.288V162.016C685.544 168.824 682.784 170.112 673.584 170.664V176H717.928V170.664C708.728 170.112 706.152 168.824 706.152 162.016V100.008C712.592 94.856 719.4 90.44 727.864 90.44C738.168 90.44 742.216 96.144 742.216 108.288V162.016ZM852.17 162.016C852.17 168.824 849.226 170.112 840.026 170.664V176H884.922V170.664C875.722 170.112 872.778 168.824 872.778 162.016V107.368C872.778 87.496 864.314 77.744 847.202 77.744C832.482 77.744 821.81 86.024 813.53 95.408L814.266 77.744H811.138L781.33 87.312V89.888L792.922 96.328V162.016C792.922 168.824 789.978 170.112 780.778 170.664V176H825.49V170.664C816.474 170.112 813.53 168.824 813.53 162.016V100.008C819.97 94.856 828.066 90.44 836.714 90.44C847.202 90.44 852.17 95.96 852.17 108.288V162.016ZM923.499 77.744H920.555L891.299 87.312V89.888L902.891 96.328V162.016C902.891 168.824 899.947 170.112 890.747 170.664V176H935.643V170.664C926.443 170.112 923.499 168.824 923.499 162.016V77.744ZM912.643 64.68C920.187 64.68 925.891 58.792 925.891 51.8C925.891 44.624 920.187 38.736 912.643 38.736C905.099 38.736 899.579 44.624 899.579 51.8C899.579 58.792 905.099 64.68 912.643 64.68Z" fill="black"/>
</g>
<defs>
<clipPath id="clip0">
<rect width="1008" height="262.667" fill="white"/>
</clipPath>
</defs>
</svg>
